<svg xmlns="http://www.w3.org/2000/svg" version="1.1" xmlns:xlink="http://www.w3.org/1999/xlink" xmlns:svgjs="http://svgjs.dev/svgjs" viewBox="0 0 800 800"><defs><linearGradient x1="50%" y1="0%" x2="50%" y2="100%" id="nnneon-grad"><stop stop-color="#8f60d1" stop-opacity="1" offset="0%"></stop><stop stop-color="#320d76" stop-opacity="1" offset="100%"></stop></linearGradient><filter id="nnneon-filter" x="-100%" y="-100%" width="400%" height="400%" filterUnits="objectBoundingBox" primitiveUnits="userSpaceOnUse" color-interpolation-filters="sRGB">
	<feGaussianBlur stdDeviation="29 29" x="0%" y="0%" width="100%" height="100%" in="SourceGraphic" edgeMode="none" result="blur"></feGaussianBlur></filter><filter id="nnneon-filter2" x="-100%" y="-100%" width="400%" height="400%" filterUnits="objectBoundingBox" primitiveUnits="userSpaceOnUse" color-interpolation-filters="sRGB">
	<feGaussianBlur stdDeviation="17 17" x="0%" y="0%" width="100%" height="100%" in="SourceGraphic" edgeMode="none" result="blur"></feGaussianBlur></filter></defs><g stroke-width="16" stroke="url(#nnneon-grad)" fill="none" transform="rotate(28, 400, 400)"><path d="M377.5603813438297 76.35969093085714C391.4460362525451 68.34424824599421 408.5540247826111 68.34424824599421 422.43967969132655 76.36193489577454L669.0603999704916 218.74824079796053C682.9460548792072 226.76368348282347 691.50004914424 241.58058383224966 691.50004914424 257.613713166893V542.386324971265C691.50004914424 558.4194543059084 682.9460548792072 573.2363546553345 669.0603999704916 581.2540413051147L422.43967969132655 723.6403472073007C408.5540247826111 731.6557898921636 391.4460362525451 731.6557898921636 377.5603813438297 723.6381032423834L130.93966106466468 581.2517973401974C117.05400615594914 573.2363546553345 108.5000118909162 558.4194543059084 108.5000118909162 542.386324971265V257.613713166893C108.5000118909162 241.58058383224966 117.05400615594914 226.76368348282347 130.93966106466468 218.74599683304325L377.5603813438297 76.35969093085714Z " filter="url(#nnneon-filter)"></path><path d="M410.5603813438297 76.35969093085714C424.4460362525451 68.34424824599421 441.5540247826111 68.34424824599421 455.43967969132655 76.36193489577454L702.0603999704916 218.74824079796053C715.9460548792072 226.76368348282347 724.50004914424 241.58058383224966 724.50004914424 257.613713166893V542.386324971265C724.50004914424 558.4194543059084 715.9460548792072 573.2363546553345 702.0603999704916 581.2540413051147L455.43967969132655 723.6403472073007C441.5540247826111 731.6557898921636 424.4460362525451 731.6557898921636 410.5603813438297 723.6381032423834L163.93966106466468 581.2517973401974C150.05400615594914 573.2363546553345 141.5000118909162 558.4194543059084 141.5000118909162 542.386324971265V257.613713166893C141.5000118909162 241.58058383224966 150.05400615594914 226.76368348282347 163.93966106466468 218.74599683304325L410.5603813438297 76.35969093085714Z " filter="url(#nnneon-filter2)" opacity="0.25"></path><path d="M344.5603813438297 76.35969093085714C358.4460362525451 68.34424824599421 375.5540247826111 68.34424824599421 389.43967969132655 76.36193489577454L636.0603999704916 218.74824079796053C649.9460548792072 226.76368348282347 658.50004914424 241.58058383224966 658.50004914424 257.613713166893V542.386324971265C658.50004914424 558.4194543059084 649.9460548792072 573.2363546553345 636.0603999704916 581.2540413051147L389.43967969132655 723.6403472073007C375.5540247826111 731.6557898921636 358.4460362525451 731.6557898921636 344.5603813438297 723.6381032423834L97.93966106466468 581.2517973401974C84.05400615594914 573.2363546553345 75.5000118909162 558.4194543059084 75.5000118909162 542.386324971265V257.613713166893C75.5000118909162 241.58058383224966 84.05400615594914 226.76368348282347 97.93966106466468 218.74599683304325L344.5603813438297 76.35969093085714Z " filter="url(#nnneon-filter2)" opacity="0.25"></path><path d="M377.5603813438297 76.35969093085714C391.4460362525451 68.34424824599421 408.5540247826111 68.34424824599421 422.43967969132655 76.36193489577454L669.0603999704916 218.74824079796053C682.9460548792072 226.76368348282347 691.50004914424 241.58058383224966 691.50004914424 257.613713166893V542.386324971265C691.50004914424 558.4194543059084 682.9460548792072 573.2363546553345 669.0603999704916 581.2540413051147L422.43967969132655 723.6403472073007C408.5540247826111 731.6557898921636 391.4460362525451 731.6557898921636 377.5603813438297 723.6381032423834L130.93966106466468 581.2517973401974C117.05400615594914 573.2363546553345 108.5000118909162 558.4194543059084 108.5000118909162 542.386324971265V257.613713166893C108.5000118909162 241.58058383224966 117.05400615594914 226.76368348282347 130.93966106466468 218.74599683304325L377.5603813438297 76.35969093085714Z "></path></g></svg>