<svg xmlns="http://www.w3.org/2000/svg" version="1.1" xmlns:xlink="http://www.w3.org/1999/xlink" xmlns:svgjs="http://svgjs.dev/svgjs" viewBox="0 0 800 800" opacity="1"><defs><linearGradient x1="50%" y1="0%" x2="50%" y2="100%" id="nnneon-grad"><stop stop-color="#262626" stop-opacity="1" offset="0%"></stop><stop stop-color="#e3d30e" stop-opacity="1" offset="100%"></stop></linearGradient><filter id="nnneon-filter" x="-100%" y="-100%" width="400%" height="400%" filterUnits="objectBoundingBox" primitiveUnits="userSpaceOnUse" color-interpolation-filters="sRGB">
	<feGaussianBlur stdDeviation="9 32" x="0%" y="0%" width="100%" height="100%" in="SourceGraphic" edgeMode="none" result="blur"></feGaussianBlur></filter><filter id="nnneon-filter2" x="-100%" y="-100%" width="400%" height="400%" filterUnits="objectBoundingBox" primitiveUnits="userSpaceOnUse" color-interpolation-filters="sRGB">
	<feGaussianBlur stdDeviation="10 33" x="0%" y="0%" width="100%" height="100%" in="SourceGraphic" edgeMode="none" result="blur"></feGaussianBlur></filter></defs><g stroke-width="16" stroke="url(#nnneon-grad)" fill="none" transform="rotate(38, 400, 400)"><path d="M377.1369917367779 70.25326280748226C391.284640134337 62.0865853549804 408.71542090081925 62.0865853549804 422.8630692983784 70.25554911136038L674.1370107148862 215.32838908717247C688.2846591124454 223.49506653967438 697.0000494956864 238.59153104663687 697.0000494956864 254.92717225551877V545.0728522071431C697.0000494956864 561.408493416025 688.2846591124454 576.5049579229874 674.1370107148862 584.6739216793674L422.8630692983784 729.7467616551794C408.71542090081925 737.9134391076814 391.284640134337 737.9134391076814 377.1369917367779 729.7444753513015L125.86305032027008 584.6716353754892C111.7154019227109 576.5049579229874 103.00001153946977 561.408493416025 103.00001153946977 545.0728522071431V254.92717225551877C103.00001153946977 238.59153104663687 111.7154019227109 223.49506653967438 125.86305032027008 215.32610278329446L377.1369917367779 70.25326280748226Z " filter="url(#nnneon-filter)"></path><path d="M389.1369917367779 70.25326280748226C403.284640134337 62.0865853549804 420.71542090081925 62.0865853549804 434.8630692983784 70.25554911136038L686.1370107148862 215.32838908717247C700.2846591124454 223.49506653967438 709.0000494956864 238.59153104663687 709.0000494956864 254.92717225551877V545.0728522071431C709.0000494956864 561.408493416025 700.2846591124454 576.5049579229874 686.1370107148862 584.6739216793674L434.8630692983784 729.7467616551794C420.71542090081925 737.9134391076814 403.284640134337 737.9134391076814 389.1369917367779 729.7444753513015L137.86305032027008 584.6716353754892C123.7154019227109 576.5049579229874 115.00001153946977 561.408493416025 115.00001153946977 545.0728522071431V254.92717225551877C115.00001153946977 238.59153104663687 123.7154019227109 223.49506653967438 137.86305032027008 215.32610278329446L389.1369917367779 70.25326280748226Z " filter="url(#nnneon-filter2)" opacity="0.25"></path><path d="M365.1369917367779 70.25326280748226C379.284640134337 62.0865853549804 396.71542090081925 62.0865853549804 410.8630692983784 70.25554911136038L662.1370107148862 215.32838908717247C676.2846591124454 223.49506653967438 685.0000494956864 238.59153104663687 685.0000494956864 254.92717225551877V545.0728522071431C685.0000494956864 561.408493416025 676.2846591124454 576.5049579229874 662.1370107148862 584.6739216793674L410.8630692983784 729.7467616551794C396.71542090081925 737.9134391076814 379.284640134337 737.9134391076814 365.1369917367779 729.7444753513015L113.86305032027008 584.6716353754892C99.7154019227109 576.5049579229874 91.00001153946977 561.408493416025 91.00001153946977 545.0728522071431V254.92717225551877C91.00001153946977 238.59153104663687 99.7154019227109 223.49506653967438 113.86305032027008 215.32610278329446L365.1369917367779 70.25326280748226Z " filter="url(#nnneon-filter2)" opacity="0.25"></path><path d="M377.1369917367779 70.25326280748226C391.284640134337 62.0865853549804 408.71542090081925 62.0865853549804 422.8630692983784 70.25554911136038L674.1370107148862 215.32838908717247C688.2846591124454 223.49506653967438 697.0000494956864 238.59153104663687 697.0000494956864 254.92717225551877V545.0728522071431C697.0000494956864 561.408493416025 688.2846591124454 576.5049579229874 674.1370107148862 584.6739216793674L422.8630692983784 729.7467616551794C408.71542090081925 737.9134391076814 391.284640134337 737.9134391076814 377.1369917367779 729.7444753513015L125.86305032027008 584.6716353754892C111.7154019227109 576.5049579229874 103.00001153946977 561.408493416025 103.00001153946977 545.0728522071431V254.92717225551877C103.00001153946977 238.59153104663687 111.7154019227109 223.49506653967438 125.86305032027008 215.32610278329446L377.1369917367779 70.25326280748226Z "></path></g></svg>